<?xml version="1.0" encoding="UTF-8" standalone="no"?>
<!-- Created with Inkscape (http://www.inkscape.org/) -->

<svg
   xmlns:dc="http://purl.org/dc/elements/1.1/"
   xmlns:cc="http://creativecommons.org/ns#"
   xmlns:rdf="http://www.w3.org/1999/02/22-rdf-syntax-ns#"
   xmlns:svg="http://www.w3.org/2000/svg"
   xmlns="http://www.w3.org/2000/svg"
   xmlns:xlink="http://www.w3.org/1999/xlink"
   xmlns:sodipodi="http://sodipodi.sourceforge.net/DTD/sodipodi-0.dtd"
   xmlns:inkscape="http://www.inkscape.org/namespaces/inkscape"
   width="297mm"
   height="210mm"
   id="svg2985"
   version="1.1"
   inkscape:version="0.48.4 r9939"
   sodipodi:docname="mononoke.svg">
  <defs
     id="defs2987">
    <marker
       inkscape:stockid="Tail"
       orient="auto"
       refY="0.0"
       refX="0.0"
       id="Tail"
       style="overflow:visible">
      <g
         id="g4167"
         transform="scale(-1.2)">
        <path
           id="path4169"
           d="M -3.8048674,-3.9585227 L 0.54352094,0"
           style="fill:none;fill-rule:evenodd;stroke:#000000;stroke-width:0.8;stroke-linecap:round" />
        <path
           id="path4171"
           d="M -1.2866832,-3.9585227 L 3.0617053,0"
           style="fill:none;fill-rule:evenodd;stroke:#000000;stroke-width:0.8;stroke-linecap:round" />
        <path
           id="path4173"
           d="M 1.3053582,-3.9585227 L 5.6537466,0"
           style="fill:none;fill-rule:evenodd;stroke:#000000;stroke-width:0.8;stroke-linecap:round" />
        <path
           id="path4175"
           d="M -3.8048674,4.1775838 L 0.54352094,0.21974226"
           style="fill:none;fill-rule:evenodd;stroke:#000000;stroke-width:0.8;stroke-linecap:round" />
        <path
           id="path4177"
           d="M -1.2866832,4.1775838 L 3.0617053,0.21974226"
           style="fill:none;fill-rule:evenodd;stroke:#000000;stroke-width:0.8;stroke-linecap:round" />
        <path
           id="path4179"
           d="M 1.3053582,4.1775838 L 5.6537466,0.21974226"
           style="fill:none;fill-rule:evenodd;stroke:#000000;stroke-width:0.8;stroke-linecap:round" />
      </g>
    </marker>
    <clipPath
       clipPathUnits="userSpaceOnUse"
       id="clipPath3851">
      <path
         style="fill:#433215;fill-opacity:1;stroke:#453617;stroke-width:1.41732287;stroke-miterlimit:4;stroke-opacity:1;stroke-dasharray:none;display:inline"
         d="M 479.8464,45.075833 C 467.21768,25.396509 440.7254,22.209854 419.87072,21.871359 332.70518,20.456559 241.09904,133.12723 278.36689,170.22788 c -5.2858,12.38253 -9.65925,24.76505 -7.42952,37.14758 -19.19461,18.38923 -19.19814,24.7913 -35.01706,69.2259 -19.96835,27.97873 -45.41619,80.99108 -29.19403,108.67657 1.57115,-15.80944 19.634,-47.02872 19.634,-47.02872 -10.37759,21.71501 -18.23418,70.82452 -2.85751,65.15114 2.83919,-2.15014 12.29268,-26.65863 18.85954,-32.05481 -0.21282,-0.57022 -12.12128,23.06071 6.28651,49.19984 3.2246,0.68171 1.34875,-27.71635 1.79701,-21.95646 0.56615,7.27468 4.54583,46.58184 16.70508,40.33624 3.10868,-2.16425 0.49872,-17.49727 8.35847,-24.66629 2.00763,8.31849 2.3195,30.58514 17.14503,32.00406 0.26211,1.41288 4.98465,0.61508 8.57252,-4.0005 l 23.43155,5.14351 c 4.50387,11.64675 8.31286,8.60811 19.12464,11.42276 3.87996,1.01008 3.59748,10.77537 13.10183,12.87928 5.95286,2.30405 6.1392,-7.6186 9.49311,-15.15802 3.06175,1.89126 4.50395,7.47633 8.50164,8.06341 0.51552,-6.41872 0.47865,-15.91266 2.32771,-17.03576 -9.32986,-12.05414 -14.57425,-16.91079 -27.97439,-38.46225 -0.89587,8.3614 -4.07575,9.87079 -8.00101,9.14401 L 313.312,407.79288 c -59.23858,-52.62631 -39.62566,-143.24418 -0.65504,-76.97317 9.80136,23.61381 16.29139,38.80654 24.57454,45.72008 -9.22499,-30.41102 -5.79142,-53.83572 -5.14351,-58.86461 -0.17177,-5.85871 44.78272,-56.63603 72.58065,-84.01067 -24.81547,25.20826 -33.13692,36.9591 -34.00432,59.15037 6.89739,-11.93085 37.90239,-31.72101 57.43586,-44.86284 -16.79891,13.56662 -35.56827,25.08964 -47.35802,34.89986 72.01042,-25.95696 66.86797,-36.79216 81.64809,-50.33039 -4.73925,13.06552 -16.22398,26.05601 -25.71755,40.00508 13.89489,-11.12578 17.36661,-0.53844 49.7206,-51.4351 l -20.00254,50.29209 c 17.57505,-3.37823 58.15679,-56.65004 56.00711,-95.44069 3.53204,37.70273 23.364,59.41785 42.57684,91.67691 1.54986,-22.86871 -5.16547,-37.51685 -8.28677,-55.10083 10.70582,30.2379 38.51037,68.7903 45.76912,69.58447 1.70181,-1.13271 -5.06572,-16.00053 -7.56693,-31.62384 6.96605,21.48654 15.33444,22.26222 13.80442,69.48158 -3.7527,4.88491 -15.30002,33.13422 -15.43054,36.00457 -10.33634,35.73957 -12.8517,59.65442 -31.26518,83.67588 -4.3541,6.68339 -9.18336,10.60293 -27.1905,28.59423 43.47253,-6.47701 44.33252,-13.20991 51.59767,-19.68692 l 18.85954,-18.85954 c 4.81678,-7.36247 5.33384,-7.70787 11.43002,-11.43003 3.58731,-2.29477 -2.39218,3.72787 1.71451,5.14352 19.02836,-3.8425 13.5603,-18.47737 15.28856,-17.49096 2.04816,1.16899 0.81656,11.02136 7.57148,7.20394 14.3699,-10.85761 10.18886,-22.75134 13.14452,-32.57557 2.74272,-5.82509 8.54783,29.36287 14.52427,22.14988 1.50819,-25.64824 3.77211,-26.95129 6.62128,-25.86463 2.66931,-0.18589 6.6294,8.78204 12.00152,8.85826 2.50816,-1.55568 -1.27977,-23.67578 -2.85751,-34.29007 -1.39466,-6.36474 -15.46178,-45.73421 -22.86004,-67.43713 -12.83263,-31.9131 4.13877,-63.75012 -29.71806,-105.15621 -1.92376,-7.79176 -4.41473,-15.0163 -3.429,-25.71755 C 633.43343,101.16221 525.83581,-6.811604 479.8464,45.075833 z"
         id="path3853"
         inkscape:connector-curvature="0"
         sodipodi:nodetypes="ccccccccccscccccscccccccccccccccccccccccccccccccscccccccccc" />
    </clipPath>
  </defs>
  <sodipodi:namedview
     inkscape:document-units="mm"
     pagecolor="#ffffff"
     bordercolor="#666666"
     borderopacity="1.0"
     inkscape:pageopacity="0.0"
     inkscape:pageshadow="2"
     inkscape:zoom="1.9202525"
     inkscape:cx="406.26414"
     inkscape:cy="213.5075"
     inkscape:current-layer="layer5"
     id="namedview2989"
     showgrid="false"
     inkscape:window-width="1600"
     inkscape:window-height="838"
     inkscape:window-x="-8"
     inkscape:window-y="-8"
     inkscape:window-maximized="1" />
  <metadata
     id="metadata2991">
    <rdf:RDF>
      <cc:Work
         rdf:about="">
        <dc:format>image/svg+xml</dc:format>
        <dc:type
           rdf:resource="http://purl.org/dc/dcmitype/StillImage" />
        <dc:title />
      </cc:Work>
    </rdf:RDF>
  </metadata>
  <g
     inkscape:label="Back"
     inkscape:groupmode="layer"
     id="layer1"
     style="display:none">
    <image
       y="-31.649605"
       x="-1.5204926"
       id="image3002"
       xlink:href="file:///C:/Users/Ga%C3%A9tan/Documents/princesse-mononoke-arte.jpg"
       height="751.64313"
       width="1002.7564"
       style="fill:#000000;fill-opacity:1;stroke:#ff0000;stroke-opacity:1" />
  </g>
  <g
     inkscape:groupmode="layer"
     id="layer5"
     inkscape:label="skin"
     style="display:inline">
    <path
       style="fill:#998450;fill-opacity:1;stroke:#6a5933;stroke-width:1.41732287000000000;stroke-linecap:butt;stroke-linejoin:miter;stroke-miterlimit:4;stroke-opacity:1;stroke-dasharray:none;display:inline"
       d="m 486.25648,573.33358 -2.8591,94.0686 109.57763,0.80345 -0.99075,-92.6966 z"
       id="path3846"
       inkscape:connector-curvature="0"
       sodipodi:nodetypes="ccccc" />
    <path
       style="fill:#e9d49f;fill-opacity:1;stroke:#39311f;stroke-width:1.41732287;stroke-linecap:butt;stroke-linejoin:miter;stroke-miterlimit:4;stroke-opacity:1;stroke-dasharray:none"
       d="m 501.12875,488.56909 -122.9016,-45.10353 c -0.60184,17.65658 -5.06228,112.28467 -25.63963,95.10536 l -26.46302,128.44027 239.92682,1.11237 c -4.54608,-28.49334 -35.38067,-59.66064 -35.38067,-59.66064 -6.5866,-7.94347 -24.99509,-12.30345 -42.87244,-30.27837 1.03652,-41.97986 7.99635,-70.21465 13.33054,-89.61546 z"
       id="path3970"
       inkscape:connector-curvature="0"
       sodipodi:nodetypes="cccccccc" />
    <path
       style="fill:#b8a57d;fill-opacity:1;stroke:none"
       d="m 378.90242,443.70307 c -0.1555,4.56206 -0.93251,17.40907 -1.81464,28.99193 12.91969,0.34231 12.08488,39.41191 34.09579,93.18 17.09887,33.29463 42.63803,51.10749 66.08326,73.28125 l 8.42743,28.4375 79.71875,0.375 c -4.54608,-28.49334 -35.375,-59.65625 -35.375,-59.65625 -6.5866,-7.94347 -24.99765,-12.30633 -42.875,-30.28125 1.03652,-41.97986 8.00956,-70.22419 13.34375,-89.625 z"
       id="path4109"
       inkscape:connector-curvature="0"
       sodipodi:nodetypes="cccccccccc" />
    <path
       style="fill:#b2b08a;fill-opacity:1;stroke:#3d3d3d;stroke-width:1.0629921;stroke-linecap:butt;stroke-linejoin:miter;stroke-miterlimit:4;stroke-opacity:1;stroke-dasharray:none;display:inline"
       d="m 497.72153,504.93805 c 7.20816,1.77407 26.34695,9.08012 42.3486,28.61728 4.79511,4.70889 6.48045,6.13632 9.81461,5.24739 5.40044,-2.31574 0.0861,3.32496 7.77033,11.01795 -5.83791,-8.98315 -4.83435,-21.42126 -3.50402,-20.68688 4.3711,3.56341 8.55588,13.29319 22.87532,31.57899 -3.799,-8.01396 -17.77553,-22.01368 -11.56786,-19.79542 10.05751,1.14054 32.69779,29.34544 43.42307,47.97498 8.96031,14.60667 19.63614,24.85778 22.64376,33.31591 5.87683,9.21814 6.98697,26.56029 5.35252,46.39778 l -43.92527,-0.27617 c -10.23254,-35.89391 -53.87395,-68.17985 -54.00711,-67.63184 -10.10352,-9.3288 -36.23246,-28.06066 -51.08082,-23.69734 1.64615,-35.815 7.19806,-59.97879 9.85687,-72.06263 z"
       id="path3826"
       inkscape:connector-curvature="0"
       sodipodi:nodetypes="cccccccccccccc" />
    <path
       style="fill:#d4cec2;fill-opacity:1;stroke:#575757;stroke-width:1.41732287;stroke-linecap:butt;stroke-linejoin:miter;stroke-miterlimit:4;stroke-opacity:1;stroke-dasharray:none;display:inline"
       d="m 531.32726,623.45373 c -7.97867,-6.30813 -5.2223,-24.70504 10.26211,-24.06293 13.96256,0.88093 65.27951,44.38989 59.70039,47.48086 -0.29098,5.93874 -58.50711,-14.54579 -69.9625,-23.41793 z"
       id="path4030-4-2-3"
       inkscape:connector-curvature="0"
       sodipodi:nodetypes="cccc"
       inkscape:transform-center-y="-0.86069813"
       inkscape:transform-center-x="-4.1963717" />
    <path
       style="fill:#000000;fill-opacity:1;stroke:none;display:inline"
       d="m 538.97717,644.45858 c -16.88847,0.56698 -8.31257,-16.7984 -5.14088,-23.41403 3.77572,-8.08444 14.11056,-3.84409 15.59377,3.36086 -0.5662,8.98539 -4.58114,19.52982 -10.45289,20.05317 z"
       id="path3974-7-6-1"
       inkscape:connector-curvature="0"
       sodipodi:nodetypes="cccc" />
    <path
       style="fill:#d4cec2;fill-opacity:1;stroke:#575757;stroke-width:1.41732287;stroke-linecap:butt;stroke-linejoin:miter;stroke-miterlimit:4;stroke-opacity:1;stroke-dasharray:none;display:inline"
       d="m 517.83242,654.78737 c -16.41952,-18.14147 11.08819,-32.32683 22.43428,-24.23194 8.51129,5.8152 18.40628,22.42207 24.87145,37.66843 l -33.22896,-0.16444 c -4.61882,-4.52552 -9.35464,-9.03653 -14.07677,-13.27205 z"
       id="path4030-4-2"
       inkscape:connector-curvature="0"
       sodipodi:nodetypes="ccccc" />
    <path
       style="fill:#000000;fill-opacity:1;stroke:none;display:inline"
       d="m 491.5162,654.97816 c -6.29811,-13.35386 12.61419,-13.25905 19.7865,-13.29966 8.73046,-0.13011 8.88424,11.0095 2.24101,13.85096 -8.46172,3.06286 -19.53761,3.96382 -22.02751,-0.5513 z"
       id="path3974-7-6"
       inkscape:connector-curvature="0"
       sodipodi:nodetypes="cccc" />
    <path
       style="fill:#4d432a;fill-opacity:1;stroke:none"
       d="m 476.49784,638.77889 -2.17694,0.9719 c -8.27693,-19.20863 -29.27923,-22.19663 -34.44692,-24.03242 -31.98033,-8.3847 -66.47479,-28.09999 -44.01991,-18.18196 12.39009,6.14654 33.02141,13.89275 44.98841,16.77505 23.70082,7.52701 25.67949,11.08611 35.65536,24.46743 z"
       id="path4085"
       inkscape:connector-curvature="0"
       sodipodi:nodetypes="cccccc" />
    <path
       style="fill:#d9e3da;fill-opacity:1;stroke:#575757;stroke-width:1.41732287;stroke-linecap:butt;stroke-linejoin:miter;stroke-miterlimit:4;stroke-opacity:1;stroke-dasharray:none;display:inline"
       d="m 455.98805,654.48742 c -5.64895,-21.65289 24.91195,-24.15992 36.96356,-7.99899 3.12465,4.30873 4.70733,12.18959 5.05333,21.20195 l -37.12933,-0.21237 c -1.56794,-4.0727 -3.19666,-8.94024 -4.88756,-12.99059 z"
       id="path4030-4"
       inkscape:connector-curvature="0"
       sodipodi:nodetypes="ccccc" />
    <path
       style="fill:#f0e0a2;fill-opacity:1;stroke:#534520;stroke-width:1.77165353;stroke-miterlimit:4;stroke-opacity:1;stroke-dasharray:none;display:inline"
       d="m 467.93647,509.25209 c -12.28954,0.89876 -33.93082,-8.57085 -90.58901,-64.20818 l -127.80974,-57.53057 68.81229,-257.4668 281.21221,1.22424 52.27697,227.80412 -86.91576,76.22463 c -15.41936,21.71096 -32.64991,35.3231 -59.15577,53.49862 -24.93438,18.02691 -30.96769,19.97139 -37.83119,20.45394 z"
       id="path3871"
       inkscape:connector-curvature="0"
       sodipodi:nodetypes="ccccccccc" />
    <path
       style="fill:#b8a57b;fill-opacity:1;stroke:none;display:inline"
       d="m 600.1875,134.125 -306.21875,86.625 -5.09375,19.09375 43.375,87.625 c 8.74855,-5.26038 21.74276,-20.00115 35.34051,-9.45474 6.28978,6.48313 44.08247,6.83569 69.50859,1.16581 8.74095,0.87194 14.24431,0.86442 19.04915,-0.93307 5.46255,-2.36345 8.29699,-8.11515 7.18907,-14.4176 L 422.9435,291.29638 c 20.32701,-12.4521 49.77106,-36.79755 62.19212,-84.68624 l 4.39563,36.51485 c 40.49294,-24.57116 46.14999,48.55011 21.07728,80.08565 l -7.56618,14.75591 C 610.32464,320.93837 490.98441,506.99412 471.8125,507.65624 l 5.8125,-1.125 c 5.59227,-2.50069 13.67082,-7.53269 28.0625,-17.9375 26.50586,-18.17552 43.73689,-31.78904 59.15625,-53.5 l 86.90625,-76.25 z"
       id="path3871-7"
       inkscape:connector-curvature="0"
       sodipodi:nodetypes="ccccccccccccccccccc" />
    <path
       style="fill:#932211;fill-opacity:1;stroke:#5f0000;stroke-width:1.41732287;stroke-linecap:butt;stroke-linejoin:miter;stroke-miterlimit:4;stroke-opacity:1;stroke-dasharray:none;display:inline"
       d="m 500.60991,294.99132 c -3.24581,-0.33141 -10.88559,-45.29255 -15.76038,-67.48675 15.59428,-0.31687 17.76879,-4.46796 47.28115,-0.80823 -10.06221,19.93302 -26.97847,68.16951 -31.52077,68.29498 z"
       id="path3920"
       inkscape:connector-curvature="0"
       sodipodi:nodetypes="cccc" />
    <path
       style="fill:#932211;fill-opacity:1;stroke:#5f0000;stroke-width:1.41732287;stroke-linecap:butt;stroke-linejoin:miter;stroke-miterlimit:4;stroke-opacity:1;stroke-dasharray:none;display:inline"
       d="m 374.93098,357.62874 c 6.08972,2.35382 15.76903,5.06716 38.39067,6.46579 -2.0604,23.52921 -2.90981,60.80856 0.40411,81.22658 -16.92227,-23.23919 -30.52513,-52.50245 -38.79478,-87.69237 z"
       id="path3922"
       inkscape:connector-curvature="0"
       sodipodi:nodetypes="cccc" />
    <path
       style="fill:#932211;fill-opacity:1;stroke:#5f0000;stroke-width:1.41732287;stroke-linecap:butt;stroke-linejoin:miter;stroke-miterlimit:4;stroke-opacity:1;stroke-dasharray:none;display:inline"
       d="m 548.29517,365.30687 c 9.55105,-3.98193 28.47555,-9.5922 29.09609,-9.69869 -3.03284,24.13004 -18.64904,55.36463 -34.34955,86.88415 9.43402,-36.44464 8.23699,-63.30141 5.25346,-77.18546 z"
       id="path3926"
       inkscape:connector-curvature="0"
       sodipodi:nodetypes="cccc" />
    <path
       style="fill:#241f0b;fill-opacity:1;stroke:none"
       d="m 458.5957,304.02342 c -15.04833,-3.63189 -33.41314,-12.2245 -69.11722,-15.32436 -27.69584,-1.63944 -28.13356,-0.65195 -50.36167,3.67153 20.54358,-7.13346 38.63461,-10.95676 50.10895,-9.48928 44.15837,4.50742 58.8068,15.20107 73.24641,18.52941 22.51011,4.62498 2.65025,4.96916 -3.87647,2.6127 z"
       id="path3803"
       inkscape:connector-curvature="0"
       sodipodi:nodetypes="cccccc" />
    <path
       style="fill:#241f0b;fill-opacity:1;stroke:none;display:inline"
       d="m 528.14821,307.91508 c 10.74157,-3.04312 41.72682,-24.65254 56.12103,-25.57639 10.28558,-1.29507 36.62855,-1.48004 59.23601,-0.18223 -21.31574,-4.30864 -47.48938,-4.1937 -58.29428,-3.03909 -21.05822,2.29826 -55.12657,23.3325 -62.72806,25.6248 -21.88157,6.84834 -0.3601,5.65295 5.6653,3.17291 z"
       id="path3803-1"
       inkscape:connector-curvature="0"
       sodipodi:nodetypes="cccccc" />
    <path
       style="fill:#55612f;fill-opacity:1;stroke:#221804;stroke-width:1.41732287;stroke-linecap:butt;stroke-miterlimit:4;stroke-opacity:1;stroke-dasharray:none;marker-end:none;display:inline"
       d="M 480.52149,43.593617 C 467.89277,23.914294 441.40049,20.727639 420.54581,20.389143 333.38027,18.974343 241.77413,131.64502 279.04198,168.74567 c -5.2858,12.38253 -9.65925,24.76505 -7.42952,37.14758 -19.19461,18.38923 -19.19814,24.7913 -35.01706,69.2259 -19.96835,27.97873 -45.41619,80.99108 -29.19403,108.67657 4.48549,-16.11187 3.94449,-14.1297 19.634,-47.02872 -10.63797,24.8396 -18.23418,70.82452 -2.85751,65.15114 2.83919,-2.15014 12.29268,-26.65863 18.85954,-32.05481 -3.07703,3.5959 -8.03908,46.48615 6.28651,49.19984 3.2246,-10.25435 1.0202,-27.68131 1.79701,-21.95646 4.73227,34.87522 8.16501,40.93736 15.42167,40.1968 4.9656,-5.05717 3.03524,-23.50828 9.64187,-22.70418 -1.43869,15.41973 5.99585,31.28209 16.10351,31.4833 6.25091,0.37136 7.32809,-8.75869 9.61405,-11.81197 l 23.43155,11.65307 c 4.50387,11.64675 8.31286,14.07614 19.12464,11.42276 3.98168,-0.46969 3.07671,9.21308 11.79992,12.87928 8.55668,3.34558 9.0034,-8.39975 12.35731,-15.93917 3.06175,1.89126 3.67813,8.25748 7.67582,8.84456 0.51552,-6.41872 -0.5182,-16.43342 1.33086,-17.55652 -27.29625,-27.93748 -32.01988,-42.94902 -29.27631,-35.33766 0.66643,3.9349 -1.99269,7.52734 -6.43871,6.54018 l -27.92001,-10.46649 c -59.23858,-52.62631 -39.62566,-143.24418 -0.65504,-76.97317 9.80136,23.61381 16.29139,38.80654 24.57454,45.72008 -9.22499,-30.41102 -5.79142,-53.83572 -5.14351,-58.86461 -0.17177,-5.85871 44.78272,-56.63603 72.58065,-84.01067 -24.81547,25.20826 -33.13692,36.9591 -34.00432,59.15037 6.89739,-11.93085 37.90239,-31.72101 57.43586,-44.86284 -16.79891,13.56662 -35.56827,25.08964 -47.35802,34.89986 72.01042,-25.95696 66.86797,-36.79216 81.64809,-50.33039 -4.73925,13.06552 -16.22398,26.05601 -25.71755,40.00508 13.89489,-11.12578 17.36661,-0.53844 49.7206,-51.4351 l -20.00254,50.29209 c 17.57505,-3.37823 58.15679,-56.65004 56.00711,-95.44069 3.53204,37.70273 23.364,59.41785 42.57684,91.67691 1.54986,-22.86871 -5.16547,-37.51685 -8.28677,-55.10083 10.70582,30.2379 38.51037,68.7903 45.76912,69.58447 1.70181,-1.13271 -5.06572,-16.00053 -7.56693,-31.62384 6.96605,21.48654 15.33444,22.26222 13.80442,69.48158 -3.7527,4.88491 -15.30002,33.13422 -15.43054,36.00457 -10.33634,35.73957 -12.8517,59.65442 -31.26518,83.67588 -4.3541,6.68339 -8.07865,10.60293 -26.08579,28.59423 15.26021,2.60722 29.96987,-13.42927 30.64553,-6.0408 4.47249,10.6291 13.09232,-5.08265 19.84743,-13.64612 l 9.22539,-10.78768 c 4.81678,-7.36247 19.65487,-22.0289 21.06417,-20.02265 0.98348,1.87134 -1.74122,5.29016 2.10509,5.14352 15.64116,-2.50899 11.57507,-8.12896 14.31402,-10.13708 2.70808,-1.46445 3.23786,5.79138 7.70169,0.88779 16.78035,-14.93438 11.81433,-31.73069 14.37941,-30.87924 8.34094,-1.72981 -2.53312,27.18662 9.32429,17.76422 8.55704,-7.49232 0.90025,-28.94501 11.04012,-23.69223 2.66931,-0.18589 6.93446,11.33353 9.70276,11.40975 2.50816,-1.55568 1.01899,-26.22727 -0.55875,-36.84156 -1.39466,-6.36474 -15.46178,-45.73421 -22.86004,-67.43713 -12.83263,-31.9131 4.13877,-63.75012 -29.71806,-105.15621 -1.92376,-7.79176 -4.41473,-15.0163 -3.429,-25.71755 C 634.10852,99.679994 526.5109,-8.2938204 480.52149,43.593617 z"
       id="path3006"
       inkscape:connector-curvature="0"
       sodipodi:nodetypes="ccccccccccsccccccccccccccccccccccccccccccccccccccccccccccccc" />
    <path
       style="fill:#302a1c;fill-opacity:1;stroke:none;display:inline"
       d="m 511.96875,30.59375 c -4.13762,-0.03087 -8.16202,0.470298 -12,1.53125 36.0963,9.439842 43.37349,72.75403 21.64301,104.95079 -12.46717,35.05019 -0.84285,59.20872 -15.42426,93.48671 10.36364,-17.46571 18.06204,-37.87108 17.09375,-55.34375 3.53204,37.70273 23.38091,59.39719 42.59375,91.65625 1.54986,-22.86871 -5.15995,-37.50977 -8.28125,-55.09375 10.70582,30.2379 38.49125,68.79958 45.75,69.59375 1.70181,-1.13271 -5.06129,-16.00169 -7.5625,-31.625 6.96605,21.48654 15.34252,22.24939 13.8125,69.46875 -3.7527,4.88491 -15.30698,33.1609 -15.4375,36.03125 -10.33634,35.73957 -12.83652,59.63479 -31.25,83.65625 -4.3541,6.68339 -8.07565,9.86598 -26.08279,27.85728 15.26021,2.60722 29.96963,-12.68325 30.64529,-5.29478 4.47249,10.6291 13.08864,-5.09278 19.84375,-13.65625 l 9.21875,-10.78125 c 4.81678,-7.36247 19.6532,-22.0375 21.0625,-20.03125 0.98348,1.87134 -1.75256,5.30289 2.09375,5.15625 C 635.32866,419.64726 631.26105,414.00812 634,412 c 2.70808,-1.46445 3.25492,5.80984 7.71875,0.90625 16.78035,-14.93438 11.80992,-31.72645 14.375,-30.875 8.34094,-1.72981 -2.54491,27.1724 9.3125,17.75 8.55704,-7.49232 0.92263,-28.94028 11.0625,-23.6875 2.66931,-0.18589 6.9192,11.33003 9.6875,11.40625 2.50816,-1.55568 1.01524,-26.22946 -0.5625,-36.84375 -1.39466,-6.36474 -15.44549,-45.73458 -22.84375,-67.4375 -12.83263,-31.9131 4.13808,-63.75016 -29.71875,-105.15625 -1.92376,-7.79176 -4.42323,-15.0175 -3.4375,-25.71875 3.84828,-42.18555 -66.45592,-121.368291 -117.625,-121.75 z"
       id="path3006-1"
       inkscape:connector-curvature="0"
       sodipodi:nodetypes="scccccccccccccccccccccccccccs" />
    <path
       style="fill:#b8a57b;fill-opacity:1;stroke:#534520;stroke-width:1.41732287;stroke-linecap:butt;stroke-linejoin:miter;stroke-miterlimit:4;stroke-opacity:1;stroke-dasharray:none"
       d="m 593.36653,356.51168 c 20.22684,-37.69774 23.7751,-36.18933 23.38302,-28.90655 2.51809,29.76577 -18.78006,65.54606 -18.78006,65.54606 l -12.43642,-6.95792 z"
       id="path3831"
       inkscape:connector-curvature="0"
       sodipodi:nodetypes="ccccc" />
    <path
       style="fill:#eceef5;fill-opacity:1;stroke:#545454;stroke-width:1.41732287;stroke-miterlimit:4;stroke-opacity:1;stroke-dasharray:none;display:inline"
       d="m 576.28655,427.80078 0.74717,-14.74763 c -3.25219,6.01081 -1.40282,6.76258 -12.5741,22.56927 -1.77763,5.07354 22.74359,27.40051 36.37012,-3.23291 5.5409,-13.35413 7.22435,-40.36703 -13.00335,-55.14339 -3.86593,12.61574 -4.72078,20.37609 -8.83902,30.26771 -3.69299,9.50536 -2.22965,20.3709 -2.70082,20.28695 z"
       id="path3895"
       inkscape:connector-curvature="0"
       sodipodi:nodetypes="ccccccc" />
    <path
       style="fill:#000000;fill-opacity:1;stroke:none;display:inline"
       d="m 277.13579,170.22588 c 26.17295,-18.6708 105.37342,-25.0641 172.37415,-32.84003 17.88398,-1.19947 31.96522,4.46725 38.57248,12.25087 -1.0772,-18.24964 31.98748,-34.75113 46.06881,-0.42468 5.1149,-21.48165 93.21698,-7.98507 95.37051,5.65757 -0.25507,6.41386 -0.0829,15.78733 6.4658,25.86319 -54.39983,-14.78155 -88.69723,-0.0791 -101.83631,-21.01384 -10.33869,24.25443 -33.7879,19.24274 -44.87704,0.38355 -23.57633,24.01337 -64.71521,14.43608 -111.99203,25.67791 -48.30072,10.70056 -84.78757,14.63697 -107.42039,21.24025 1.94316,-10.96933 1.38179,-23.81685 7.27402,-36.79479 z"
       id="path3810"
       inkscape:connector-curvature="0"
       sodipodi:nodetypes="ccccccccccc" />
    <path
       style="fill:#e7ebe3;fill-opacity:1;stroke:none;display:inline"
       d="m 506.84222,138.84038 c 14.5047,-2.69813 19.23707,17.66642 12.44242,23.28148 -17.82163,12.86013 -31.17882,-19.29072 -12.44242,-23.28148 z"
       id="path3833"
       inkscape:connector-curvature="0"
       sodipodi:nodetypes="ccc" />
    <path
       style="fill:#eceef5;fill-opacity:1;stroke:#545454;stroke-width:1.41732287;stroke-linecap:butt;stroke-linejoin:miter;stroke-miterlimit:4;stroke-opacity:1;stroke-dasharray:none;display:inline"
       d="m 310.69024,417.5899 c -3.01299,3.0017 3.73142,-3.14558 4.69424,-10.80012 -1.96407,-1.53842 -3.57037,-2.03737 -7.93737,-6.74171 -6.76036,-0.25272 -21.91033,44.76847 9.31393,46.73292 9.78039,1.26965 20.15475,-3.11892 23.02985,-13.21504 1.55743,-5.92732 6.92377,-46.31927 -12.20945,-46.67837 -8.70908,-0.16404 -12.04611,16.38197 -12.24337,20.25675 -1.81363,6.7254 -4.64783,10.44557 -4.64783,10.44557 z"
       id="path3893"
       inkscape:connector-curvature="0"
       sodipodi:nodetypes="cccccccc" />
    <path
       style="fill:#534520;fill-opacity:1;stroke:none"
       d="m 440.9182,435.35712 c 3.7501,3.3769 5.88591,-4.13759 25.22151,-2.67363 18.21351,0.35148 15.83853,3.2018 23.56159,2.66926 20.15496,-4.50322 18.29953,2.72336 20.69662,1.09003 0.41427,-1.06921 -2.88386,-3.99474 -7.89007,-4.44149 -2.78546,-0.37967 -8.4838,1.41617 -13.03262,1.51939 -9.45556,0.17668 -10.10291,-5.06657 -39.58982,-1.91782 -2.58442,0.78061 -10.59697,0.45694 -8.96721,3.75426 z"
       id="path3804"
       inkscape:connector-curvature="0"
       sodipodi:nodetypes="cccccccc" />
    <path
       style="fill:#534520;fill-opacity:1;stroke:none"
       d="m 486.57799,455.19902 c 0.22043,2.50006 -1.27556,1.83154 -4.04371,2.11779 -7.77839,-0.62455 -9.23771,1.48554 -10.31751,0.82811 -0.21862,-1.02343 1.23407,-3.18071 10.1088,-2.95938 3.1668,0.22989 3.52178,-1.47791 4.25242,0.0135 z"
       id="path3794"
       inkscape:connector-curvature="0"
       sodipodi:nodetypes="cccccc" />
    <path
       style="fill:#534520;fill-opacity:1;stroke:none"
       d="m 303.19226,341.0819 c -15.54755,-3.25135 -2.92694,29.17089 -0.28555,34.34589 1.61555,3.46467 2.50161,0.50679 1.49339,-1.37294 -4.71917,-10.19668 -14.49037,-34.82672 -1.1528,-32.2142 z"
       id="path3798"
       inkscape:connector-curvature="0"
       sodipodi:nodetypes="ccccc" />
    <path
       style="fill:#534520;fill-opacity:1;stroke:none;display:inline"
       d="m 306.78886,344.2074 c -2.30097,-4.25522 -9.22169,-13.73046 -15.7965,-15.02708 -3.11625,-0.0893 4.50212,4.08172 7.59637,7.1837 4.01447,4.58379 4.74495,6.09866 6.40348,8.79616 19.10727,33.88505 7.91158,8.8559 1.79665,-0.95278 z"
       id="path3798-1"
       inkscape:connector-curvature="0"
       sodipodi:nodetypes="ccccc" />
    <path
       style="fill:#534520;fill-opacity:1;stroke:none"
       d="m 313.32143,363.75683 c 1.09027,-2.37624 4.00057,-3.07014 0.60797,0.99024 -1.19563,2.91209 -0.46354,8.40179 5.65341,13.12232 3.45338,2.5766 2.51758,5.0843 -1.20068,1.74384 -5.03167,-4.99919 -8.51405,-11.33038 -5.0607,-15.8564 z"
       id="path3829"
       inkscape:connector-curvature="0"
       sodipodi:nodetypes="ccccc" />
    <path
       style="fill:#f3f3f3;fill-opacity:1;stroke:none"
       d="m 367.56359,322.00569 c 1.84988,2.98431 14.99221,16.8327 36.12807,21.74192 10.13276,0.82304 18.6266,1.94845 25.62185,-0.0307 6.64086,-3.57337 9.14026,-5.09051 13.43551,-11.42617 -11.53005,-30.03205 -19.10406,-22.4817 -28.1213,-28.64207 -16.48537,0.66123 -30.32172,-0.57601 -48.8217,12.17287 z"
       id="path3834"
       inkscape:connector-curvature="0"
       sodipodi:nodetypes="ccccccc" />
    <path
       style="fill:#000000;fill-opacity:1;stroke:none"
       d="m 441.82419,328.53114 c -4.9795,-16.14117 -7.53734,-23.8273 -27.78876,-28.17551 -13.26195,-2.64469 -27.36576,2.15603 -38.57644,6.90408 -6.68993,-1.14201 -15.50913,-7.53435 -5.16987,2.52882 -1.17068,0.93162 -3.1571,2.23263 -4.8264,3.75699 -9.79046,-1.09565 -3.25841,0.86786 -2.35176,3.31565 0.83328,1.48794 4.46511,5.75504 5.19816,6.31321 0.60339,-0.17754 -4.31024,-6.0869 0.80148,-8.0893 24.1334,-13.39481 59.0752,-15.74593 67.2033,5.90851 2.25184,7.50941 6.67339,11.78392 6.37096,11.39504 -0.0129,-0.0166 -0.42518,-2.07222 -0.86067,-3.85749 z"
       id="path3823"
       inkscape:connector-curvature="0"
       sodipodi:nodetypes="cccccccccsc" />
    <path
       style="fill:#000000;fill-opacity:1;stroke:none"
       d="m 421.13727,305.21101 -23.3567,-0.93783 c -14.2454,11.61454 -6.5478,37.73406 2.12765,38.05487 l 10.76429,1.73531 c 12.60975,-7.92849 13.97822,-20.1165 13.84974,-24.27094 0.07,-5.91356 -0.19497,-7.06756 -3.38498,-14.58141 z"
       id="path3830"
       inkscape:connector-curvature="0"
       sodipodi:nodetypes="cccccc" />
    <path
       style="fill:#000000;fill-opacity:1;stroke:none"
       d="m 380.18601,333.45148 c 12.26702,10.71765 43.87933,15.35006 50.4506,9.63401 -16.02741,3.90028 -39.04829,-3.76066 -50.4506,-9.63401 z"
       id="path3832"
       inkscape:connector-curvature="0"
       sodipodi:nodetypes="ccc" />
    <path
       style="fill:#f3f3f3;fill-opacity:1;stroke:none"
       d="m 398.93774,325.4273 c 7.74953,-2.8211 4.48302,-15.17297 -1.47294,-14.92283 -3.00507,0.16879 -5.67784,2.66424 -5.94572,7.41866 0.40154,6.95861 4.03297,8.11002 7.41866,7.50417 z"
       id="path3836"
       inkscape:connector-curvature="0"
       sodipodi:nodetypes="cccc" />
    <path
       style="fill:#f3f3f3;fill-opacity:1;stroke:none;display:inline"
       d="m 584.98152,321.54682 c 0.17514,4.45742 -10.58562,20.07527 -30.54445,23.31425 -8.65817,0.84193 -15.91592,1.99317 -21.89317,-0.0313 -5.6835,-3.67251 -8.14536,-6.48711 -12.26143,-13.25067 7.7271,-16.30541 18.66734,-20.1334 26.37233,-26.43514 14.08629,-1.53302 26.55621,-2.81172 40.15452,11.1503 z"
       id="path3834-1"
       inkscape:connector-curvature="0"
       sodipodi:nodetypes="ccccccc" />
    <path
       style="fill:#000000;fill-opacity:1;stroke:none;display:inline"
       d="m 520.22066,331.58035 c 4.16413,-11.44749 19.05215,-25.01278 29.28368,-28.76356 14.3803,-4.46486 26.89462,-0.25886 30.35868,4.4587 9.84721,0.49195 21.19601,1.69669 3.63637,3.36798 2.04185,2.5153 2.17689,3.84618 3.60326,5.40552 7.36924,2.08222 0.35527,0.75203 -0.19695,3.13477 -0.71202,1.52207 -2.00952,3.29834 -1.79849,1.70619 0.14676,-0.85295 -0.41038,-3.28884 -2.1631,-6.13029 -8.58598,-13.49191 -36.15711,-13.7916 -54.24453,7.839 -5.53663,6.28155 -8.50734,9.83679 -8.47892,8.98169 z"
       id="path3823-7"
       inkscape:connector-curvature="0"
       sodipodi:nodetypes="cccccccccc" />
    <path
       style="fill:#000000;fill-opacity:1;stroke:none;display:inline"
       d="m 542.39448,310.35044 c 5.01685,-7.09468 11.87413,-5.49848 19.17651,-6.65078 13.99499,12.72483 3.70439,37.9841 -5.14065,40.90345 -2.32432,1.05576 -6.19549,2.05183 -9.51673,1.55711 -14.78148,-9.16914 -10.15746,-29.83496 -4.51913,-35.80978 z"
       id="path3830-1"
       inkscape:connector-curvature="0"
       sodipodi:nodetypes="ccccc" />
    <path
       style="fill:#000000;fill-opacity:1;stroke:none;display:inline"
       d="m 535.25829,345.49412 c 11.27142,1.15388 25.54369,-1.12753 34.73216,-7.22367 4.49833,-2.83249 5.16489,-2.32596 0.23182,0.92579 -14.67819,10.28971 -32.49957,7.94636 -37.10145,5.92523 -2.03647,-0.81661 -0.925,-0.55175 2.13747,0.37265 z"
       id="path3832-1"
       inkscape:connector-curvature="0"
       sodipodi:nodetypes="ccccc" />
    <path
       style="fill:#f3f3f3;fill-opacity:1;stroke:none;display:inline"
       d="m 544.69074,329.67245 c 7.14253,-1.45373 5.19571,-13.12379 -0.47744,-13.31241 -7.29679,0.008 -7.77556,14.13495 0.47744,13.31241 z"
       id="path3836-5"
       inkscape:connector-curvature="0"
       sodipodi:nodetypes="ccc" />
    <path
       style="fill:#33290e;fill-opacity:1;stroke:none"
       d="m 513.83342,319.79243 c -1.20891,-1.94906 -11.15737,11.99531 -11.30676,15.86042 -1.57661,6.52913 -0.66564,20.88253 2.45376,37.51798 0.83873,2.44784 2.52303,2.24797 1.82267,-0.26039 -3.06938,-16.76436 -3.96054,-34.09794 -2.08305,-38.01583 1.12704,-4.35691 9.11338,-15.10218 9.11338,-15.10218 z"
       id="path3946"
       inkscape:connector-curvature="0"
       sodipodi:nodetypes="cccccc" />
    <path
       style="fill:#33290e;fill-opacity:1;stroke:none"
       d="m 504.98045,387.11707 c -1.09911,-0.1382 -1.23586,2.38933 -3.58142,4.83015 -2.01251,2.11009 -4.30541,4.74333 -3.93811,5.44571 0.6141,1.33927 3.28891,-2.42407 4.93801,-4.42649 1.86873,-2.32238 4.43912,-5.74025 2.58152,-5.84937 z"
       id="path3950"
       inkscape:connector-curvature="0"
       sodipodi:nodetypes="ccccc" />
    <path
       style="fill:#33290e;fill-opacity:1;stroke:none;display:inline"
       d="m 487.15428,391.02249 c -0.36769,-0.95966 -5.56659,-0.89028 -3.63227,1.48602 0.42343,0.59624 2.04637,1.26595 2.77487,1.5149 1.34797,-0.008 2.94652,-0.51022 2.4197,-1.95941 z"
       id="path3950-2"
       inkscape:connector-curvature="0"
       sodipodi:nodetypes="ccccc" />
    <path
       style="fill:#000000;fill-opacity:1;stroke:none;display:inline"
       d="m 429.44456,639.4452 c 0.0529,-16.88514 17.14207,-7.4023 26.86312,-2.87045 6.70588,2.76493 4.11575,14.43419 -5.04102,13.66745 -7.9279,-0.72983 -20.06859,-5.11236 -21.8221,-10.797 z"
       id="path3974-7"
       inkscape:connector-curvature="0"
       sodipodi:nodetypes="cccc" />
    <path
       style="fill:#e4e8cd;fill-opacity:1;stroke:#3d3d3d;stroke-width:1.0629921;stroke-linecap:butt;stroke-linejoin:miter;stroke-miterlimit:4;stroke-opacity:1;stroke-dasharray:none"
       d="m 330.68569,515.24537 c 10.32327,7.24879 15.53124,14.52838 21.35315,23.58966 13.33283,4.3704 7.31067,39.13989 17.59252,50.59316 9.89003,8.10894 20.82633,20.46707 43.87253,77.65109 -0.70359,0.47403 -371.306483,1.35954 -371.306483,1.35954 17.045458,-15.60582 33.340755,-33.29804 36.568278,-41.3592 -6.086791,6.64242 -5.795686,9.78298 -19.434772,21.10063 25.477732,-49.98246 40.364918,-79.21305 58.716677,-96.46028 20.1947,-19.53091 48.10232,-37.3718 72.55234,-43.76531 -11.08112,2.68346 -6.43998,1.52898 -20.96863,6.92269 -17.40565,9.99184 -8.1211,-2.30562 -36.11621,12.82882 -7.96926,3.41477 27.00391,-37.09305 81.82532,-32.74302 -22.12633,-1.35011 -39.23527,-5.49538 -37.82147,-8.05677 0.0866,-5.36221 45.42996,-17.32773 68.84104,2.80141 -9.1265,-6.42552 -28.12716,-26.13579 -20.48318,-25.69712 28.88599,16.5051 61.2605,16.71611 83.94033,29.0857 -24.1361,-12.2294 -17.81398,-8.27338 -25.94029,-16.88092 -2.18899,-7.299 -0.11577,8.02528 90.47682,15.151 -6.40875,41.00435 -11.72065,52.75285 -21.81764,46.82444 -2.8103,-3.08368 -9.81915,-17.87746 -21.85033,-22.94552 z"
       id="path4086"
       inkscape:connector-curvature="0"
       sodipodi:nodetypes="cccccccccccccccccccc" />
    <path
       style="fill:#d9e3da;fill-opacity:1;stroke:#575757;stroke-width:1.41732287;stroke-linecap:butt;stroke-linejoin:miter;stroke-miterlimit:4;stroke-opacity:1;stroke-dasharray:none"
       d="m 404.26605,616.94704 c 6.7036,-8.94858 27.80922,1.48584 27.07977,19.78906 -0.70581,6.42757 -8.12098,18.33977 -17.74864,30.53924 L 386.4734,667.1307 c 4.83588,-20.19044 11.82087,-43.56315 17.79265,-50.18366 z"
       id="path4030"
       inkscape:connector-curvature="0"
       sodipodi:nodetypes="ccccc" />
    <path
       style="fill:#000000;fill-opacity:1;stroke:none"
       d="m 383.07388,603.37876 c 6.65247,-2.75854 17.27142,5.85909 22.08118,9.77041 7.88381,6.2924 2.78493,16.98699 -7.99559,15.30864 -3.74726,-8.25053 -8.67692,-17.0626 -14.08559,-25.07905 z"
       id="path3974"
       inkscape:connector-curvature="0"
       sodipodi:nodetypes="cccc" />
    <path
       style="fill:#dcc38b;fill-opacity:1;stroke:#332915;stroke-width:1.41732287;stroke-linecap:butt;stroke-linejoin:miter;stroke-miterlimit:4;stroke-opacity:1;stroke-dasharray:none"
       d="m 176.92542,667.54425 c 9.17293,-27.6896 26.32712,-43.71186 31.48071,-45.17385 5.2431,-1.15796 75.74055,-15.61408 138.76863,44.808 0,0 -169.20328,0.36216 -170.24934,0.36585 z"
       id="path4088"
       inkscape:connector-curvature="0"
       sodipodi:nodetypes="cccc" />
    <path
       style="fill:#000000;fill-opacity:1;stroke:none"
       d="m 312.5891,116.05207 c -6.59635,8.36969 -12.54176,15.45282 -20.8306,36.45354 -1.51021,4.73858 -0.36267,5.44107 1.30192,0.78116 6.14157,-15.92459 12.43836,-27.54488 20.57021,-36.32336 2.41281,-2.79382 0.83676,-3.42257 -1.04153,-0.91134 z"
       id="path3868"
       inkscape:connector-curvature="0"
       sodipodi:nodetypes="ccccc" />
    <path
       style="fill:#000000;fill-opacity:1;stroke:none;display:inline"
       d="m 339.35765,269.40824 c -1.64909,2.3809 -11.23984,19.22837 -13.93047,34.24029 -0.20828,4.08762 0.67886,4.39954 1.43211,0.1302 2.49622,-13.32076 11.39684,-30.53927 13.53989,-33.58934 2.41281,-2.79382 1.48772,-4.07353 -1.04153,-0.78115 z"
       id="path3868-1"
       inkscape:connector-curvature="0"
       sodipodi:nodetypes="ccccc" />
    <path
       style="fill:#000000;fill-opacity:1;stroke:none;display:inline"
       d="m 480.70099,44.422418 c 23.79165,7.251554 26.57291,15.375792 28.72756,17.970221 1.35401,2.525325 3.82195,1.598512 1.43211,-1.432096 C 507.1077,54.930491 496.84789,46.78069 481.28493,42.689091 z"
       id="path3868-1-7"
       inkscape:connector-curvature="0"
       sodipodi:nodetypes="ccccc" />
    <path
       style="fill:#686868;fill-opacity:1;stroke:none"
       d="m 247.88407,539.4339 c -29.68359,-6.42277 -64.06869,14.77692 -54.15954,12.49835 30.72512,-18.05318 51.64961,-9.26567 54.15954,-12.49835 z"
       id="path4148"
       inkscape:connector-curvature="0"
       sodipodi:nodetypes="ccc" />
    <path
       style="fill:#686868;fill-opacity:1;stroke:none;display:inline"
       d="m 268.69041,528.79131 c -34.89124,-13.71347 -54.69491,3.32009 -49.99342,-1.5623 11.97758,-8.15866 40.71355,-6.66184 49.99342,1.5623 z"
       id="path4148-9"
       inkscape:connector-curvature="0"
       sodipodi:nodetypes="ccc" />
    <path
       style="fill:#686868;fill-opacity:1;stroke:none;display:inline"
       d="m 270.09873,519.48846 c -32.80818,-25.17032 -23.9698,-0.32526 -19.78907,-2.08307 -1.04153,-2.04306 -10.45085,-18.30792 18.52614,3.61096 4.85005,5.13278 6.64748,2.47128 1.26293,-1.52789 z"
       id="path4148-9-4"
       inkscape:connector-curvature="0"
       sodipodi:nodetypes="cccc" />
    <path
       style="fill:#000000;fill-opacity:1;stroke:none;display:inline"
       d="m 633.80016,257.14234 c 0.95473,9.67161 0.217,25.99832 -5.59822,39.44795 -6.97822,13.98215 -2.9665,13.7733 1.4321,1.17173 6.22243,-16.23843 6.81844,-29.04217 6.76995,-40.3593 -0.71178,-3.83535 -3.19919,-4.59429 -2.60383,-0.26038 z"
       id="path3868-1-8"
       inkscape:connector-curvature="0"
       sodipodi:nodetypes="ccccc" />
  </g>
</svg>
